<?xml version="1.0" encoding="iso-8859-1"?>
<!-- Uploaded to: SVG Repo, www.svgrepo.com, Generator: SVG Repo Mixer Tools -->
<svg fill="inherit" height="800px" width="800px" version="1.1" id="Layer_1" xmlns="http://www.w3.org/2000/svg" xmlns:xlink="http://www.w3.org/1999/xlink" 
	 viewBox="0 0 512 512" xml:space="preserve">
<g>
	<g>
		<path d="M45.616,417.7c-11.674-0.005-23.356,4.445-32.261,13.352c-17.806,17.805-17.807,46.675-0.002,64.477
			c17.802,17.802,46.67,17.805,64.476,0c8.902-8.903,13.352-20.572,13.352-32.242l0.001-45.587H45.616z"/>
	</g>
</g>
<g>
	<g>
		<path d="M412.963,179.664L512,80.625L434.491,3.118l-99.038,99.035L309.619,76.32c-28.538-28.54-74.806-28.538-103.343-0.002
			l-12.94,12.94l77.506,77.506l77.509,77.509l77.506,77.506l12.939-12.938c28.537-28.538,28.538-74.807,0.001-103.344
			L412.963,179.664z"/>
	</g>
</g>
<g>
	<g>
		<path d="M245.007,192.602L124.462,313.147c-21.403,21.404-21.401,56.104,0.002,77.506c21.402,21.404,56.103,21.406,77.507,0
			l120.543-120.542L245.007,192.602z"/>
	</g>
</g>
</svg>